HIERARCHY
ROOT SpineBase
{
  OFFSET 0.000000 0.000000 0.000000
  CHANNELS 6 Xposition Yposition Zposition Zrotation Xrotation Yrotation
  JOINT SpineMid
  {
    OFFSET 0.000000 26.323132 0.000000
    CHANNELS 3 Zrotation Xrotation Yrotation
    JOINT SpineShoulder
    {
      OFFSET 0.239132 19.684907 -0.536244
      CHANNELS 3 Zrotation Xrotation Yrotation
      JOINT Neck
      {
        OFFSET 0.105869 6.516017 -0.540280
        CHANNELS 3 Zrotation Xrotation Yrotation
        JOINT Head
        {
          OFFSET 4.869388 12.793330 4.532455
          CHANNELS 3 Zrotation Xrotation Yrotation
          End Site
          {
            OFFSET 0 0 0
          }
        }
      }
      JOINT ShoulderLeft
      {
        OFFSET -12.592601 1.720121 0.435882
        CHANNELS 3 Zrotation Xrotation Yrotation
        JOINT ElbowLeft
        {
          OFFSET -10.551245 -19.336748 -5.223569
          CHANNELS 3 Zrotation Xrotation Yrotation
          JOINT WristLeft
          {
            OFFSET -0.018490 -16.744565 -8.350608
            CHANNELS 3 Zrotation Xrotation Yrotation
            JOINT HandLeft
            {
              OFFSET 2.459214 -6.107116 -1.309288
              CHANNELS 3 Zrotation Xrotation Yrotation
              JOINT HandTipLeft
              {
                OFFSET 1.511206 -4.622995 -3.654074
                CHANNELS 3 Zrotation Xrotation Yrotation
                End Site
                {
                  OFFSET 0 0 0
                }
              }
              JOINT ThumbLeft
              {
                OFFSET 3.683345 -1.132382 3.392016
                CHANNELS 3 Zrotation Xrotation Yrotation
                End Site
                {
                  OFFSET 0 0 0
                }
              }
            }
          }
        }
      }
      JOINT ShoulderRight
      {
        OFFSET 12.105884 5.991511 8.110611
        CHANNELS 3 Zrotation Xrotation Yrotation
        JOINT ElbowRight
        {
          OFFSET -4.576486 -21.054688 4.604475
          CHANNELS 3 Zrotation Xrotation Yrotation
          JOINT WristRight
          {
            OFFSET -4.153178 -14.360533 -17.899867
            CHANNELS 3 Zrotation Xrotation Yrotation
            JOINT HandRight
            {
              OFFSET -0.263706 -6.485432 2.296997
              CHANNELS 3 Zrotation Xrotation Yrotation
              JOINT HandTipRight
              {
                OFFSET 1.495134 -3.757218 -6.163892
                CHANNELS 3 Zrotation Xrotation Yrotation
                End Site
                {
                  OFFSET 0 0 0
                }
              }
              JOINT ThumbRight
              {
                OFFSET 4.825004 2.398802 3.917152
                CHANNELS 3 Zrotation Xrotation Yrotation
                End Site
                {
                  OFFSET 0 0 0
                }
              }
            }
          }
        }
      }
    }
  }
  JOINT HipLeft
  {
    OFFSET -6.210384 1.721268 -4.362195
    CHANNELS 3 Zrotation Xrotation Yrotation
    JOINT KneeLeft
    {
      OFFSET -0.130688 -24.028731 -8.274878
      CHANNELS 3 Zrotation Xrotation Yrotation
      JOINT AnkleLeft
      {
        OFFSET 0.641491 -29.499226 1.005274
        CHANNELS 3 Zrotation Xrotation Yrotation
        JOINT FootLeft
        {
          OFFSET 3.278163 -0.035797 -12.817155
          CHANNELS 3 Zrotation Xrotation Yrotation
          End Site
          {
            OFFSET 0 0 0
          }
        }
      }
    }
  }
  JOINT HipRight
  {
    OFFSET 6.083413 1.977339 -2.083827
    CHANNELS 3 Zrotation Xrotation Yrotation
    JOINT KneeRight
    {
      OFFSET 11.462378 -21.570713 -10.906761
      CHANNELS 3 Zrotation Xrotation Yrotation
      JOINT AnkleRight
      {
        OFFSET 10.037159 -30.861567 -7.420755
        CHANNELS 3 Zrotation Xrotation Yrotation
        JOINT FootRight
        {
          OFFSET 2.401076 1.368685 -10.583691
          CHANNELS 3 Zrotation Xrotation Yrotation
          End Site
          {
            OFFSET 0 0 0
          }
        }
      }
    }
  }
}
MOTION
Frames: 15
Frame Time: 0.033333
40.664572 42.798799 285.496160 20.193916 -3.839674 -8.536947 0.419820 -0.977107 10.023402 -0.613184 0.927129 0.966913 22.746281 21.076621 -35.111290 0.000000 0.000000 0.000000 63.695141 -6.706301 -41.326002 57.768095 -45.983868 103.617623 -163.241928 32.899212 146.192035 85.583296 -50.390481 11.143552 0.000000 0.000000 0.000000 0.000000 0.000000 0.000000 -145.638402 57.059331 48.777516 -34.888439 56.497433 89.515402 -83.315583 55.141995 84.777061 -38.398731 -50.431638 -42.014441 0.000000 0.000000 0.000000 0.000000 0.000000 0.000000 147.631599 67.092328 -163.174909 -137.964083 -28.107634 -131.232435 40.442591 10.820408 17.123889 0.000000 0.000000 0.000000 -1.304682 -17.820703 -7.549145 -104.240161 -4.575064 71.956664 -63.202532 -39.491616 -163.457625 0.000000 0.000000 0.000000
41.809894 42.807015 284.437164 21.500416 -2.195505 -10.171899 0.349142 -1.191635 11.464560 -0.352054 1.210749 0.966816 22.185551 18.084042 -34.134933 0.000000 0.000000 0.000000 58.153064 -6.689652 -35.406277 56.437525 -47.401117 93.145263 -169.382531 32.702331 148.208136 71.938633 -46.548803 5.464115 0.000000 0.000000 0.000000 0.000000 0.000000 0.000000 -142.723416 60.448200 47.681509 -37.667887 70.598106 92.488136 -85.413689 32.453886 109.422361 -44.949341 -35.306625 -81.077398 0.000000 0.000000 0.000000 0.000000 0.000000 0.000000 139.459544 68.466890 -154.295632 -140.133048 -26.560549 -129.151486 40.616620 11.514009 17.500351 0.000000 0.000000 0.000000 -3.959347 -23.737674 -6.552570 -102.277285 -5.478954 76.108041 -63.219489 -39.502039 -163.450012 0.000000 0.000000 0.000000
42.646501 42.882969 283.557216 22.574180 -0.829674 -13.026241 0.282955 -1.401470 14.132228 -0.277426 1.065154 1.037194 22.190845 15.283568 -33.161874 0.000000 0.000000 0.000000 55.502407 -5.264220 -36.387485 58.024638 -45.648231 89.761547 -178.586224 38.184817 153.982918 4.664039 -63.223566 -22.093003 0.000000 0.000000 0.000000 0.000000 0.000000 0.000000 -152.422996 61.406662 55.030597 -29.025797 64.194205 85.103136 -86.077048 26.757295 122.052966 -53.936534 -18.396771 -98.121642 0.000000 0.000000 0.000000 0.000000 0.000000 0.000000 139.347424 70.065210 -154.495993 -141.434972 -25.279598 -129.029241 40.765344 12.046535 17.629960 0.000000 0.000000 0.000000 -4.587920 -28.004316 -4.083268 -101.182519 -6.072267 78.641567 -63.246177 -39.519399 -163.437036 0.000000 0.000000 0.000000
42.933010 42.951970 283.013975 23.022516 0.130751 -14.226465 0.223575 -1.330720 15.125443 -0.261000 0.769597 1.115092 21.299605 11.460795 -30.216096 0.000000 0.000000 0.000000 52.336699 -4.279688 -35.234948 52.684626 -45.163945 75.685275 177.825448 40.160293 153.230773 -32.405375 -64.215610 -44.748434 0.000000 0.000000 0.000000 0.000000 0.000000 0.000000 -167.892443 58.202367 63.136019 -20.049154 42.835480 81.114064 -78.291753 19.131698 138.993818 -56.359468 -0.692006 -111.253583 0.000000 0.000000 0.000000 0.000000 0.000000 0.000000 144.218277 70.203769 -160.430346 -141.477299 -24.461594 -131.150075 40.895830 12.470838 17.655179 0.000000 0.000000 0.000000 -4.044763 -29.989546 -3.146020 -101.260727 -6.628229 79.400393 -63.275162 -39.536924 -163.422941 0.000000 0.000000 0.000000
43.059046 43.230455 282.220629 23.191103 0.562226 -8.000886 -0.158567 -1.598973 8.845440 -0.065867 1.040013 1.063234 21.723809 10.919498 -30.259945 0.000000 0.000000 0.000000 50.026128 -7.126811 -27.478319 45.254499 -48.664803 64.851442 165.014970 45.079546 166.517609 -65.372085 -50.701512 -54.926189 0.000000 0.000000 0.000000 0.000000 0.000000 0.000000 179.439984 57.733906 76.351410 -15.224458 17.193030 70.329896 -76.230695 18.671101 145.225362 -62.924211 0.238666 -114.008508 0.000000 0.000000 0.000000 0.000000 0.000000 0.000000 132.986749 66.495679 -148.673172 -141.016262 -24.594378 -131.508095 41.023434 12.527107 17.753486 0.000000 0.000000 0.000000 -8.033820 -31.969386 -11.297926 -101.145184 -7.816131 81.399250 -63.291856 -39.557128 -163.409140 0.000000 0.000000 0.000000
43.035188 42.858414 282.040367 23.205666 1.709180 -2.793936 -0.277538 -1.755791 3.423224 0.014539 1.081255 1.058233 21.750850 10.099880 -29.903350 0.000000 0.000000 0.000000 50.419303 -6.197621 -29.721391 49.281223 -47.635518 70.667254 154.327786 53.722425 178.813730 -65.190234 -45.667486 -46.386413 0.000000 0.000000 0.000000 0.000000 0.000000 0.000000 170.882928 55.548342 81.896853 -9.356291 -4.024941 66.305145 -85.539207 18.675662 154.979349 -60.815688 2.530920 -116.744482 0.000000 0.000000 0.000000 0.000000 0.000000 0.000000 129.001183 63.940861 -145.032579 -139.647491 -25.262094 -133.501315 41.151448 13.104999 17.834979 0.000000 0.000000 0.000000 -12.267243 -33.870611 -18.422636 -100.624780 -8.459032 83.149422 -63.273849 -39.552559 -163.414760 0.000000 0.000000 0.000000
43.218865 42.857605 281.830638 23.806652 2.421519 4.044046 -0.408896 -1.505912 -3.603533 0.098301 0.995380 1.113911 20.099971 8.184777 -28.078735 0.000000 0.000000 0.000000 55.960287 -6.368597 -35.723707 52.534164 -45.290678 84.872169 162.113579 58.283102 173.461725 -38.624055 -47.853924 -34.826191 0.000000 0.000000 0.000000 0.000000 0.000000 0.000000 174.909729 52.710544 66.899359 -3.353761 1.984589 78.646206 -104.547432 -2.831030 172.328234 -43.146732 5.240683 -147.420590 0.000000 0.000000 0.000000 0.000000 0.000000 0.000000 122.630215 59.373492 -138.965893 -138.820554 -25.779586 -134.757218 41.181926 13.524168 17.887962 0.000000 0.000000 0.000000 -18.911784 -33.944465 -27.327068 -99.754227 -8.646757 84.769354 -63.253305 -39.546573 -163.421223 0.000000 0.000000 0.000000
43.407675 42.998416 281.899286 24.585316 2.812694 12.172756 -0.491937 -0.945759 -11.921070 0.047035 1.022323 1.140314 17.921490 6.362415 -26.062307 0.000000 0.000000 0.000000 61.523411 -5.927505 -44.533174 56.420054 -41.110605 99.678284 -160.995943 64.353977 139.463268 -4.720366 -40.654572 -22.070268 0.000000 0.000000 0.000000 0.000000 0.000000 0.000000 174.867958 54.003096 66.772925 -2.162601 -1.052842 77.400920 -120.644770 8.265709 164.541065 -76.247248 -7.490265 -129.912629 0.000000 0.000000 0.000000 0.000000 0.000000 0.000000 115.312475 55.060738 -132.438103 -136.692550 -27.999449 -134.286350 41.237195 13.825116 17.971430 0.000000 0.000000 0.000000 -26.013121 -32.040413 -37.210951 -99.141667 -8.929071 86.151328 -63.248686 -39.545378 -163.422532 0.000000 0.000000 0.000000
43.515834 43.039239 281.982988 25.010122 3.124640 13.614086 -0.303071 -0.936388 -13.429122 -0.071655 0.734063 1.227660 15.358063 6.194411 -24.789973 0.000000 0.000000 0.000000 67.512343 -4.760835 -58.343668 61.822194 -32.707931 115.113010 -119.647605 56.218286 99.484800 22.785472 -31.743706 -20.027655 0.000000 0.000000 0.000000 0.000000 0.000000 0.000000 -172.603351 52.697937 48.860152 -6.762823 13.736071 87.229998 -143.772944 32.166600 156.806259 -111.806874 -35.820804 -116.699657 0.000000 0.000000 0.000000 0.000000 0.000000 0.000000 112.348155 54.602649 -129.856482 -136.337212 -28.754912 -133.470042 41.140620 14.068550 17.962717 0.000000 0.000000 0.000000 -27.459199 -31.618801 -38.906236 -99.096645 -8.940804 86.239647 -63.245466 -39.544444 -163.423408 0.000000 0.000000 0.000000
43.564293 43.057206 282.218499 25.631735 3.572113 7.958792 0.496133 0.038153 -8.102962 -0.345172 0.494548 1.311083 12.735888 3.548456 -22.311625 0.000000 0.000000 0.000000 71.507720 -1.419997 -76.582868 65.964164 -18.165017 122.485712 -98.759169 39.544382 75.974704 38.023665 -30.139414 -24.972603 0.000000 0.000000 0.000000 0.000000 0.000000 0.000000 -170.000174 55.128753 47.660151 -12.487293 21.683495 88.165342 -139.342564 58.940917 141.644857 -87.863733 -52.955834 -76.639168 0.000000 0.000000 0.000000 0.000000 0.000000 0.000000 114.477567 58.376860 -132.525226 -137.722723 -27.564626 -133.705740 41.109351 14.682221 18.041024 0.000000 0.000000 0.000000 -23.568720 -32.563013 -31.589415 -99.405147 -7.897822 84.187231 -63.245329 -39.543410 -163.423925 0.000000 0.000000 0.000000
44.071275 42.874919 282.187636 27.036349 4.525694 5.455142 0.116169 0.239933 -5.907469 0.059088 0.464147 1.417009 8.173001 1.452890 -19.683191 0.000000 0.000000 0.000000 72.938702 3.403878 -93.739551 68.219124 -4.428753 124.212186 -88.310870 37.794947 63.139607 27.667985 -38.680953 -26.144980 0.000000 0.000000 0.000000 0.000000 0.000000 0.000000 -162.277691 56.880961 40.862146 -22.631583 38.787225 94.558204 -85.402449 53.095303 101.676184 -62.062210 -29.581170 -68.343795 0.000000 0.000000 0.000000 0.000000 0.000000 0.000000 113.261984 60.172113 -132.525985 -138.310668 -26.988178 -133.718304 41.172494 15.128653 18.197652 0.000000 0.000000 0.000000 -24.545094 -34.150122 -29.256329 -98.804986 -7.469271 84.465410 -63.245619 -39.526148 -163.432421 0.000000 0.000000 0.000000
43.456933 42.839820 282.722246 26.918909 3.888899 8.353723 0.525749 0.323752 -8.658947 -0.248954 0.929272 1.275687 3.613529 1.457267 -17.511262 0.000000 0.000000 0.000000 74.970440 4.904995 -101.841231 65.969139 -0.316377 122.240279 -83.020785 27.484256 55.604973 25.217949 -42.202228 -27.667330 0.000000 0.000000 0.000000 0.000000 0.000000 0.000000 -147.819172 56.659871 30.007994 -45.433108 66.947416 116.176299 -82.754850 48.376180 86.102193 -55.422372 -31.128561 -65.302642 0.000000 0.000000 0.000000 0.000000 0.000000 0.000000 114.162254 58.105284 -133.774209 -137.510672 -27.577715 -134.573321 41.119302 14.857023 18.163027 0.000000 0.000000 0.000000 -24.846584 -32.382149 -32.091256 -99.636500 -7.961268 83.926374 -63.247031 -39.549767 -163.420562 0.000000 0.000000 0.000000
43.317370 43.079883 282.891173 26.454865 4.061397 13.787309 0.686870 0.115397 -14.088460 -0.530458 1.131043 1.176183 2.327429 0.202978 -15.897220 0.000000 0.000000 0.000000 75.681323 6.594373 -104.761064 64.297325 1.665842 118.084534 -80.460691 24.255799 51.478581 17.634097 -46.974917 -27.365869 0.000000 0.000000 0.000000 0.000000 0.000000 0.000000 -144.204994 53.776911 23.607217 -63.587708 67.790024 135.428638 -60.288079 62.073326 28.082048 -55.461917 -70.255803 -37.309185 0.000000 0.000000 0.000000 0.000000 0.000000 0.000000 112.113276 55.521491 -131.881951 -135.589130 -29.381696 -134.933088 41.122106 14.796742 19.300856 0.000000 0.000000 0.000000 -28.179249 -31.503359 -39.010981 -99.743968 -8.905384 85.186072 -63.272267 -39.573027 -163.404620 0.000000 0.000000 0.000000
43.204574 43.140216 283.025467 24.758386 4.496393 12.233592 1.043219 0.137114 -12.610533 -0.637382 1.556078 0.991232 4.351740 -2.402495 -14.588414 0.000000 0.000000 0.000000 76.422597 10.928442 -108.697756 65.578567 4.989178 115.553756 -81.772735 28.863060 51.502549 4.133590 -60.346017 -29.273989 0.000000 0.000000 0.000000 0.000000 0.000000 0.000000 -143.285393 52.860128 21.037899 -57.329920 61.382255 129.767895 -74.611719 51.391456 71.390491 -90.678002 -46.894004 -86.009018 0.000000 0.000000 0.000000 0.000000 0.000000 0.000000 114.441719 57.512350 -132.849381 -135.402831 -29.438800 -135.439203 41.183663 15.240433 19.127520 0.000000 0.000000 0.000000 -24.265513 -32.818902 -37.448018 -100.909705 -9.381436 84.091414 -63.309278 -39.585131 -163.391846 0.000000 0.000000 0.000000
43.155422 43.124322 282.946968 22.232659 5.051977 7.851325 1.292012 -0.128514 -8.211204 -0.610162 1.801074 0.839527 8.640054 -3.809198 -14.292098 0.000000 0.000000 0.000000 79.082745 18.304376 -118.470781 76.475412 14.152125 123.684687 -80.596273 40.649042 54.676890 -32.577666 -66.290622 -41.945933 0.000000 0.000000 0.000000 0.000000 0.000000 0.000000 -136.309122 56.265931 22.277766 -45.333765 54.770043 109.917881 -80.236576 38.297954 106.379970 -87.618868 -12.687461 -98.145263 0.000000 0.000000 0.000000 0.000000 0.000000 0.000000 118.223276 59.657712 -133.332513 -137.363265 -27.481044 -135.501446 41.260379 15.881126 17.896179 0.000000 0.000000 0.000000 -17.736814 -34.745278 -32.142959 -101.780574 -9.392729 82.802384 -63.331897 -39.596590 -163.381828 0.000000 0.000000 0.000000
